<svg width="32" height="32" viewBox="0 0 32 32" fill="none" xmlns="http://www.w3.org/2000/svg">
<circle cx="16" cy="16" r="16" transform="matrix(0 -1 -1 0 32 32)" fill="#525252"/>
<g clip-path="url(#clip0_2368_8657)">
<path fill-rule="evenodd" clip-rule="evenodd" d="M12.2878 15.2929C12.1003 15.4804 11.995 15.7347 11.995 15.9999C11.995 16.2651 12.1003 16.5194 12.2878 16.7069L17.9448 22.3639C18.037 22.4594 18.1474 22.5356 18.2694 22.588C18.3914 22.6404 18.5226 22.668 18.6554 22.6692C18.7882 22.6703 18.9198 22.645 19.0427 22.5947C19.1656 22.5444 19.2773 22.4702 19.3712 22.3763C19.4651 22.2824 19.5393 22.1708 19.5896 22.0479C19.6399 21.925 19.6652 21.7933 19.664 21.6605C19.6629 21.5277 19.6353 21.3965 19.5829 21.2745C19.5305 21.1525 19.4543 21.0421 19.3588 20.9499L14.4088 15.9999L19.3588 11.0499C19.5409 10.8613 19.6417 10.6087 19.6394 10.3465C19.6372 10.0843 19.532 9.83349 19.3466 9.64808C19.1612 9.46268 18.9104 9.3575 18.6482 9.35523C18.386 9.35295 18.1334 9.45374 17.9448 9.6359L12.2878 15.2929Z" fill="white"/>
</g>
<defs>
<clipPath id="clip0_2368_8657">
<rect width="24" height="24" fill="white" transform="matrix(0 -1 -1 0 28 28)"/>
</clipPath>
</defs>
</svg>
