<svg width="32" height="32" viewBox="0 0 32 32" fill="none" xmlns="http://www.w3.org/2000/svg">
<circle cx="16" cy="16" r="16" transform="rotate(-90 16 16)" fill="#525252"/>
<g clip-path="url(#clip0_2368_8650)">
<path fill-rule="evenodd" clip-rule="evenodd" d="M19.7122 15.2929C19.8997 15.4804 20.005 15.7347 20.005 15.9999C20.005 16.2651 19.8997 16.5194 19.7122 16.7069L14.0552 22.3639C13.963 22.4594 13.8526 22.5356 13.7306 22.588C13.6086 22.6404 13.4774 22.668 13.3446 22.6692C13.2118 22.6703 13.0802 22.645 12.9573 22.5947C12.8344 22.5444 12.7227 22.4702 12.6288 22.3763C12.5349 22.2824 12.4607 22.1708 12.4104 22.0479C12.3601 21.925 12.3348 21.7933 12.336 21.6605C12.3371 21.5277 12.3647 21.3965 12.4171 21.2745C12.4695 21.1525 12.5457 21.0421 12.6412 20.9499L17.5912 15.9999L12.6412 11.0499C12.4591 10.8613 12.3583 10.6087 12.3606 10.3465C12.3628 10.0843 12.468 9.83349 12.6534 9.64808C12.8388 9.46268 13.0896 9.3575 13.3518 9.35523C13.614 9.35295 13.8666 9.45374 14.0552 9.6359L19.7122 15.2929Z" fill="white"/>
</g>
<defs>
<clipPath id="clip0_2368_8650">
<rect width="24" height="24" fill="white" transform="matrix(0 -1 1 0 4 28)"/>
</clipPath>
</defs>
</svg>
