<svg width="1791" height="1350" viewBox="0 0 1791 1350" fill="none" xmlns="http://www.w3.org/2000/svg">
<g clip-path="url(#clip0_4003_4078)">
<mask id="path-1-inside-1_4003_4078" fill="white">
<path d="M1791 -257C1791 617.819 1081.82 1327 207 1327C-667.819 1327 -1377 617.819 -1377 -257C-1377 -1131.82 -667.819 -1841 207 -1841C1081.82 -1841 1791 -1131.82 1791 -257ZM-1163.51 -257C-1163.51 499.914 -549.914 1113.51 207 1113.51C963.914 1113.51 1577.51 499.914 1577.51 -257C1577.51 -1013.91 963.914 -1627.51 207 -1627.51C-549.914 -1627.51 -1163.51 -1013.91 -1163.51 -257Z"/>
</mask>
<path d="M1791 -257C1791 617.819 1081.82 1327 207 1327C-667.819 1327 -1377 617.819 -1377 -257C-1377 -1131.82 -667.819 -1841 207 -1841C1081.82 -1841 1791 -1131.82 1791 -257ZM-1163.51 -257C-1163.51 499.914 -549.914 1113.51 207 1113.51C963.914 1113.51 1577.51 499.914 1577.51 -257C1577.51 -1013.91 963.914 -1627.51 207 -1627.51C-549.914 -1627.51 -1163.51 -1013.91 -1163.51 -257Z" stroke="#383838" stroke-width="2" mask="url(#path-1-inside-1_4003_4078)"/>
</g>
<defs>
<clipPath id="clip0_4003_4078">
<rect width="1791" height="1350" fill="white"/>
</clipPath>
</defs>
</svg>
