<svg width="32" height="32" viewBox="0 0 32 32" fill="none" xmlns="http://www.w3.org/2000/svg">
<rect width="32" height="32" rx="6" fill="#2961B6"/>
<path d="M12.0635 23.5802C11.9979 23.3152 10.9696 19.4139 10.5914 17.8305C10.2132 16.2471 9.66146 15.9551 9.02428 15.2726C8.3871 14.5901 7.88824 14.111 7.42383 13.6406C7.39326 13.6096 7.36352 13.58 7.33447 13.5515C6.86912 13.0949 6.35796 12.4239 6.88514 12.0404V12.0404C7.23037 11.7892 7.96567 11.7009 8.37222 11.623C10.1483 11.2827 11.9498 11.0152 13.6916 10.521C15.5074 10.0058 19.1003 8.88178 19.4125 8.784C19.4287 8.77892 19.4423 8.77474 19.4585 8.76979C19.6137 8.72245 20.4761 8.4588 20.93 8.30643C21.4048 8.14703 21.8802 8.04678 22.3734 7.95867C22.5703 7.92348 22.7719 7.91681 22.9407 7.95843C22.9789 7.96784 23.3811 8.04266 23.329 8.43394C23.2238 8.94298 21.412 14.3352 21.2351 14.8243C21.1391 15.103 20.4192 18.0676 20.1464 19.263C20.0725 19.587 19.9974 19.9114 19.9262 20.236C19.8649 20.5159 19.807 20.7961 19.7223 21.0715C19.6385 21.3441 19.6319 21.3566 19.532 21.6394C19.5102 21.701 19.334 22.1736 18.9127 22.3565C17.9764 22.6215 17.5631 22.0499 17.1792 21.6776C17.1091 21.6096 16.6043 21.1117 16.0447 20.5608M16.0447 20.5608C15.3252 19.8526 14.5151 19.0568 14.4211 18.974C14.2572 18.8297 14.1012 18.6802 13.9422 18.5342M16.0447 20.5608C15.7401 21.0175 14.1433 23.1178 13.6563 23.4024C13.2519 23.6387 13.2946 23.033 13.3275 22.773C13.4089 22.131 13.5017 20.9902 13.5206 20.8358C13.616 20.0559 13.6814 19.7802 13.7235 19.6127C13.7557 19.4845 13.8462 18.9242 13.9422 18.5342M13.9422 18.5342C13.8984 18.4941 13.8544 18.4542 13.81 18.4147C13.5945 18.2235 12.485 17.1457 11.7954 16.4835C11.433 16.1355 10.9242 15.6502 11.2669 15.2827V15.2827C11.4639 15.0715 11.6571 14.9489 11.9634 14.7475C12.331 14.5058 12.8279 14.167 13.1388 13.9779C13.7361 13.6145 14.3425 13.2962 14.9628 12.9794C15.368 12.7724 15.8002 12.5422 16.1944 12.3192C17.1803 11.7617 17.8235 11.3069 18.9289 10.6413L18.9409 10.6331C19.6654 10.1393 21.1691 9.11445 21.6205 9.35474C22.0744 9.59637 19.5854 11.7121 18.7805 12.4204C18.2239 12.9103 17.5291 13.6993 17.2685 13.9714C16.9582 14.2952 16.3097 15.1215 16.2658 15.1817C16.2305 15.2301 15.6192 16.0199 15.3811 16.3275C15.3183 16.4086 15.253 16.4871 15.1893 16.5675C14.9219 16.9055 14.7136 17.277 14.4507 17.6149C14.2529 17.8692 14.054 18.1177 13.9679 18.4343C13.9593 18.4659 13.9507 18.4994 13.9422 18.5342Z" stroke="#FDFDFD" stroke-linecap="round" stroke-linejoin="round"/>
</svg>
