<svg width="2008" height="1172" viewBox="0 0 2008 1172" fill="none" xmlns="http://www.w3.org/2000/svg">
<mask id="mask0_3957_5447" style="mask-type:alpha" maskUnits="userSpaceOnUse" x="0" y="0" width="2008" height="1172">
<rect width="2008" height="1172" fill="#D9D9D9"/>
</mask>
<g mask="url(#mask0_3957_5447)">
<g opacity="0.4" filter="url(#filter0_d_3957_5447)">
<path d="M-171.714 923.384C-204.027 968.513 -193.636 1031.29 -148.507 1063.61C-103.378 1095.92 -40.5985 1085.53 -8.28596 1040.4L-171.714 923.384ZM1511 240.391L1564.47 325.488L1511 240.391ZM685 981.891L782.174 956.25L685 981.891ZM-8.28596 1040.4C12.8483 1010.88 57.1878 969.98 127.294 920.265C195.508 871.893 281.28 819.892 378.145 766.782C571.749 660.632 803.7 553.294 1014.78 465.232C1226.9 376.736 1412.91 309.81 1515.2 282.802C1540.92 276.013 1557.62 272.764 1566.55 271.737C1571.5 271.168 1569.56 271.835 1563.69 271.198C1560.66 270.868 1553.05 269.838 1543.43 266.003C1533.93 262.217 1517.03 253.479 1503.18 234.6C1468.91 187.862 1491.58 141.961 1496.07 134.077C1501.93 123.775 1507.4 119.744 1503.97 122.853C1498.79 127.539 1485.03 138.018 1457.53 155.294L1564.47 325.488C1594.35 306.71 1620.24 288.717 1638.85 271.874C1647.31 264.218 1660.71 251.159 1670.76 233.486C1679.44 218.229 1702.58 166.613 1665.27 115.736C1636.7 76.7756 1594.08 72.3175 1585.4 71.3739C1569.73 69.6713 1554.73 70.7712 1543.59 72.0524C1520.34 74.7257 1492.73 80.8477 1463.89 88.462C1347.97 119.07 1151.75 190.296 937.388 279.729C721.981 369.596 483.182 479.962 281.512 590.536C180.74 645.787 87.7431 701.903 11.0253 756.306C-63.8006 809.367 -130.557 865.901 -171.714 923.384L-8.28596 1040.4ZM1457.53 155.294C1296.1 256.72 1074.21 402.137 897.454 544.896C809.551 615.891 728.721 689.461 671.957 759.219C643.617 794.046 618.315 831.483 601.887 870.23C585.63 908.576 574.468 956.909 587.826 1007.53L782.174 956.25C784.307 964.332 780.492 963.901 786.942 948.689C793.221 933.879 805.987 912.966 827.862 886.083C871.529 832.42 939.724 769.125 1023.75 701.265C1190.84 566.315 1404.4 426.062 1564.47 325.488L1457.53 155.294ZM587.826 1007.53C597.214 1043.11 616.069 1076.99 647.705 1102.34C678.724 1127.21 714.244 1137.64 746.624 1140.71C807.158 1146.45 873.403 1127.99 932.852 1105.34C1055.22 1058.72 1208.81 969.746 1358.78 880.926C1512.82 789.692 1666.13 696.675 1798.47 632.328C1864.53 600.206 1921.05 577.416 1966.5 565.53C2015.11 552.816 2035.28 556.86 2039.03 558.345L2112.97 371.439C2048.47 345.923 1976.44 355.17 1915.64 371.071C1851.68 387.801 1781.58 417.039 1710.58 451.564C1568.77 520.514 1406.12 619.278 1256.35 707.982C1102.5 799.099 964.439 878.215 861.289 917.516C807.98 937.827 778.002 941.787 765.597 940.61C761.507 940.222 766.378 939.867 773.413 945.505C781.064 951.638 782.598 957.857 782.174 956.25L587.826 1007.53Z" fill="url(#paint0_linear_3957_5447)" fill-opacity="0.66"/>
</g>
<path d="M1634.42 281.697C1687.33 248.606 1703.4 178.886 1670.31 125.973C1637.21 73.0606 1567.49 56.9926 1514.58 90.0841L1634.42 281.697ZM685 981.89L575.74 1010.72L578.619 1021.63L583.6 1031.76L685 981.89ZM891.5 1010.25L926.383 1117.73L891.5 1010.25ZM1514.58 90.0841C1357.06 188.597 1119.2 347.799 925.097 505.262C828.579 583.562 738.775 664.709 675.016 740.123C643.286 777.653 614.524 817.795 595.279 858.8C576.798 898.181 560.417 952.65 575.74 1010.72L794.261 953.06C798.358 968.589 791.637 972.356 799.868 954.818C807.337 938.905 822.342 915.911 847.6 886.036C897.819 826.638 974.884 755.888 1067.48 680.772C1251.6 531.4 1480.94 377.684 1634.42 281.697L1514.58 90.0841ZM583.6 1031.76C618.868 1103.47 683.628 1136.5 749.186 1143.43C807.865 1149.62 870.068 1136.01 926.383 1117.73L856.617 902.771C834.909 909.816 816.767 914.323 801.971 916.758C786.952 919.23 777.678 919.179 772.925 918.677C768.474 918.207 770.723 917.653 775.741 920.823C781.536 924.484 785.088 929.351 786.401 932.021L583.6 1031.76ZM926.383 1117.73C1006.08 1091.87 1212.43 992.231 1300.56 945.923L1195.44 745.858C1105.92 792.893 915.524 883.652 856.617 902.771L926.383 1117.73Z" fill="url(#paint1_linear_3957_5447)"/>
</g>
<defs>
<filter id="filter0_d_3957_5447" x="-246.508" y="18.5039" width="2415.48" height="1183.27" filterUnits="userSpaceOnUse" color-interpolation-filters="sRGB">
<feFlood flood-opacity="0" result="BackgroundImageFix"/>
<feColorMatrix in="SourceAlpha" type="matrix" values="0 0 0 0 0 0 0 0 0 0 0 0 0 0 0 0 0 0 127 0" result="hardAlpha"/>
<feOffset dy="4"/>
<feGaussianBlur stdDeviation="28"/>
<feComposite in2="hardAlpha" operator="out"/>
<feColorMatrix type="matrix" values="0 0 0 0 0.360784 0 0 0 0 0.52549 0 0 0 0 0.784314 0 0 0 0.12 0"/>
<feBlend mode="normal" in2="BackgroundImageFix" result="effect1_dropShadow_3957_5447"/>
<feBlend mode="normal" in="SourceGraphic" in2="effect1_dropShadow_3957_5447" result="shape"/>
</filter>
<linearGradient id="paint0_linear_3957_5447" x1="993.5" y1="245.892" x2="1141.25" y2="1093.15" gradientUnits="userSpaceOnUse">
<stop stop-color="#E2E9F5"/>
<stop offset="1" stop-color="#2961B6"/>
</linearGradient>
<linearGradient id="paint1_linear_3957_5447" x1="1475" y1="221.391" x2="249" y2="1255.89" gradientUnits="userSpaceOnUse">
<stop stop-color="#CAD8ED"/>
<stop offset="0.595646" stop-color="#91AEDA"/>
<stop offset="0.806738" stop-color="#2961B6"/>
</linearGradient>
</defs>
</svg>
