<svg width="256" height="256" viewBox="0 0 256 256" fill="none" xmlns="http://www.w3.org/2000/svg">
<rect width="256" height="256" rx="27.6655" fill="#2961B6"/>
<path d="M96.5267 188.634C96.0015 186.514 87.7751 155.303 84.7495 142.636C81.7239 129.969 77.3101 127.633 72.2127 122.173C67.1152 116.713 63.1244 112.88 59.4091 109.117C56.9399 106.615 55.1426 105.215 52.9662 102.988C51.535 99.798 52.334 98.3269 55.0996 96.3149C57.8614 94.3056 63.7438 93.5991 66.9961 92.976C81.2046 90.2537 95.6171 88.1131 109.551 84.1594C124.745 79.8485 155.493 70.2092 155.493 70.2092C155.493 70.2092 163.459 67.786 167.459 66.4432C171.257 65.168 175.06 64.366 179.005 63.6612C180.581 63.3797 182.193 63.3263 183.544 63.6592C183.849 63.7346 187.068 64.3331 186.65 67.4633C185.809 71.5357 171.315 114.673 169.899 118.586C168.959 121.317 160.527 156.295 160.358 157.995C159.403 161.505 158.867 165.083 157.797 168.564C157.127 170.744 157.074 170.844 156.274 173.107C156.1 173.6 154.69 177.38 151.32 178.844C143.83 180.964 140.524 176.391 137.452 173.412C136.17 172.169 116.724 152.961 115.387 151.784C113.716 150.312 112.146 148.772 110.498 147.31C108.019 145.11 90.7552 128.248 89.951 127.688C89.1003 126.323 87.7899 124.788 90.1536 122.253C91.7293 120.563 93.2754 119.583 95.7258 117.972C98.6662 116.038 102.642 113.328 105.128 111.815C109.908 108.908 114.758 106.362 119.721 103.827C122.962 102.171 126.42 100.329 129.574 98.5458C137.461 94.0853 142.607 90.4469 151.449 85.1222C157.208 81.1979 169.351 72.8967 172.983 74.8298C176.614 76.7628 156.702 93.6888 150.263 99.3553C145.809 103.274 140.252 109.586 138.166 111.763C135.684 114.353 130.496 120.964 130.145 121.445C129.793 121.927 122.316 131.582 122.316 131.582C119.782 134.527 117.977 137.887 115.624 140.911C114.042 142.945 112.451 144.933 111.762 147.466C110.921 150.558 110.087 155.776 109.806 156.893C109.47 158.233 108.946 160.439 108.183 166.678C108.032 167.913 107.29 177.04 106.639 182.176C106.375 184.256 106.034 189.101 109.268 187.211C113.165 184.934 125.939 168.132 128.376 164.479" stroke="#FDFDFD" stroke-width="5.53309" stroke-linecap="round" stroke-linejoin="round"/>
</svg>
